<mxfile host="app.diagrams.net" modified="2022-04-03T19:45:31.058Z" agent="5.0 (Macintosh; Intel Mac OS X 10_15_7) AppleWebKit/537.36 (KHTML, like Gecko) Chrome/99.0.4844.83 Safari/537.36" etag="f-TsUQ6JoRvFqYUSfs1C" version="17.4.0" type="github">
  <diagram id="tSXa933iV-H4p-sHi9MJ" name="Page-1">
    <mxGraphModel dx="1298" dy="813" grid="1" gridSize="10" guides="1" tooltips="1" connect="1" arrows="1" fold="1" page="1" pageScale="1" pageWidth="850" pageHeight="1100" math="0" shadow="0">
      <root>
        <mxCell id="0" />
        <mxCell id="1" parent="0" />
        <mxCell id="I66DchT4x0AkGHDDOi4h-74" value="store.db" style="shape=table;startSize=30;container=1;collapsible=0;childLayout=tableLayout;fontColor=default;spacingRight=2;spacingLeft=2;fontStyle=1;fontSize=14;" parent="1" vertex="1">
          <mxGeometry x="611" y="180" width="160" height="363" as="geometry" />
        </mxCell>
        <mxCell id="I66DchT4x0AkGHDDOi4h-75" value="" style="shape=tableRow;horizontal=0;startSize=0;swimlaneHead=0;swimlaneBody=0;top=0;left=0;bottom=0;right=0;collapsible=0;dropTarget=0;fillColor=none;points=[[0,0.5],[1,0.5]];portConstraint=eastwest;fontColor=default;spacingRight=2;spacingLeft=2;" parent="I66DchT4x0AkGHDDOi4h-74" vertex="1">
          <mxGeometry y="30" width="160" height="43" as="geometry" />
        </mxCell>
        <mxCell id="I66DchT4x0AkGHDDOi4h-76" value="..." style="shape=partialRectangle;html=1;whiteSpace=wrap;connectable=0;overflow=hidden;fillColor=none;top=0;left=0;bottom=0;right=0;pointerEvents=1;fontColor=default;align=center;spacingRight=2;spacingLeft=2;" parent="I66DchT4x0AkGHDDOi4h-75" vertex="1">
          <mxGeometry width="80" height="43" as="geometry">
            <mxRectangle width="80" height="43" as="alternateBounds" />
          </mxGeometry>
        </mxCell>
        <mxCell id="I66DchT4x0AkGHDDOi4h-77" value="..." style="shape=partialRectangle;html=1;whiteSpace=wrap;connectable=0;overflow=hidden;fillColor=none;top=0;left=0;bottom=0;right=0;pointerEvents=1;fontColor=default;align=right;spacingRight=2;spacingLeft=2;" parent="I66DchT4x0AkGHDDOi4h-75" vertex="1">
          <mxGeometry x="80" width="80" height="43" as="geometry">
            <mxRectangle width="80" height="43" as="alternateBounds" />
          </mxGeometry>
        </mxCell>
        <mxCell id="I66DchT4x0AkGHDDOi4h-84" value="" style="shape=tableRow;horizontal=0;startSize=0;swimlaneHead=0;swimlaneBody=0;top=0;left=0;bottom=0;right=0;collapsible=0;dropTarget=0;fillColor=none;points=[[0,0.5],[1,0.5]];portConstraint=eastwest;fontColor=default;spacingRight=2;spacingLeft=2;" parent="I66DchT4x0AkGHDDOi4h-74" vertex="1">
          <mxGeometry y="73" width="160" height="40" as="geometry" />
        </mxCell>
        <mxCell id="I66DchT4x0AkGHDDOi4h-85" value="meddle" style="shape=partialRectangle;html=1;whiteSpace=wrap;connectable=0;overflow=hidden;fillColor=none;top=0;left=0;bottom=0;right=0;pointerEvents=1;fontColor=default;align=center;spacingRight=2;spacingLeft=2;" parent="I66DchT4x0AkGHDDOi4h-84" vertex="1">
          <mxGeometry width="80" height="40" as="geometry">
            <mxRectangle width="80" height="40" as="alternateBounds" />
          </mxGeometry>
        </mxCell>
        <mxCell id="I66DchT4x0AkGHDDOi4h-86" value="6652" style="shape=partialRectangle;html=1;whiteSpace=wrap;connectable=0;overflow=hidden;fillColor=none;top=0;left=0;bottom=0;right=0;pointerEvents=1;fontColor=default;align=right;spacingRight=2;spacingLeft=2;" parent="I66DchT4x0AkGHDDOi4h-84" vertex="1">
          <mxGeometry x="80" width="80" height="40" as="geometry">
            <mxRectangle width="80" height="40" as="alternateBounds" />
          </mxGeometry>
        </mxCell>
        <mxCell id="I66DchT4x0AkGHDDOi4h-99" value="" style="shape=tableRow;horizontal=0;startSize=0;swimlaneHead=0;swimlaneBody=0;top=0;left=0;bottom=0;right=0;collapsible=0;dropTarget=0;fillColor=none;points=[[0,0.5],[1,0.5]];portConstraint=eastwest;fontColor=default;spacingRight=2;spacingLeft=2;" parent="I66DchT4x0AkGHDDOi4h-74" vertex="1">
          <mxGeometry y="113" width="160" height="41" as="geometry" />
        </mxCell>
        <mxCell id="I66DchT4x0AkGHDDOi4h-100" value="mediocrity" style="shape=partialRectangle;html=1;whiteSpace=wrap;connectable=0;overflow=hidden;fillColor=none;top=0;left=0;bottom=0;right=0;pointerEvents=1;fontColor=default;align=center;spacingRight=2;spacingLeft=2;" parent="I66DchT4x0AkGHDDOi4h-99" vertex="1">
          <mxGeometry width="80" height="41" as="geometry">
            <mxRectangle width="80" height="41" as="alternateBounds" />
          </mxGeometry>
        </mxCell>
        <mxCell id="I66DchT4x0AkGHDDOi4h-101" value="4506" style="shape=partialRectangle;html=1;whiteSpace=wrap;connectable=0;overflow=hidden;fillColor=none;top=0;left=0;bottom=0;right=0;pointerEvents=1;fontColor=default;align=right;spacingRight=2;spacingLeft=2;" parent="I66DchT4x0AkGHDDOi4h-99" vertex="1">
          <mxGeometry x="80" width="80" height="41" as="geometry">
            <mxRectangle width="80" height="41" as="alternateBounds" />
          </mxGeometry>
        </mxCell>
        <mxCell id="I66DchT4x0AkGHDDOi4h-90" value="" style="shape=tableRow;horizontal=0;startSize=0;swimlaneHead=0;swimlaneBody=0;top=0;left=0;bottom=0;right=0;collapsible=0;dropTarget=0;fillColor=none;points=[[0,0.5],[1,0.5]];portConstraint=eastwest;fontColor=default;spacingRight=2;spacingLeft=2;" parent="I66DchT4x0AkGHDDOi4h-74" vertex="1">
          <mxGeometry y="154" width="160" height="43" as="geometry" />
        </mxCell>
        <mxCell id="I66DchT4x0AkGHDDOi4h-91" value="meditate" style="shape=partialRectangle;html=1;whiteSpace=wrap;connectable=0;overflow=hidden;fillColor=none;top=0;left=0;bottom=0;right=0;pointerEvents=1;fontColor=default;align=center;spacingRight=2;spacingLeft=2;" parent="I66DchT4x0AkGHDDOi4h-90" vertex="1">
          <mxGeometry width="80" height="43" as="geometry">
            <mxRectangle width="80" height="43" as="alternateBounds" />
          </mxGeometry>
        </mxCell>
        <mxCell id="I66DchT4x0AkGHDDOi4h-92" value="9200" style="shape=partialRectangle;html=1;whiteSpace=wrap;connectable=0;overflow=hidden;fillColor=none;top=0;left=0;bottom=0;right=0;pointerEvents=1;fontColor=default;align=right;spacingRight=2;spacingLeft=2;" parent="I66DchT4x0AkGHDDOi4h-90" vertex="1">
          <mxGeometry x="80" width="80" height="43" as="geometry">
            <mxRectangle width="80" height="43" as="alternateBounds" />
          </mxGeometry>
        </mxCell>
        <mxCell id="I66DchT4x0AkGHDDOi4h-93" value="" style="shape=tableRow;horizontal=0;startSize=0;swimlaneHead=0;swimlaneBody=0;top=0;left=0;bottom=0;right=0;collapsible=0;dropTarget=0;fillColor=none;points=[[0,0.5],[1,0.5]];portConstraint=eastwest;fontColor=default;spacingRight=2;spacingLeft=2;" parent="I66DchT4x0AkGHDDOi4h-74" vertex="1">
          <mxGeometry y="197" width="160" height="41" as="geometry" />
        </mxCell>
        <mxCell id="I66DchT4x0AkGHDDOi4h-94" value="medium" style="shape=partialRectangle;html=1;whiteSpace=wrap;connectable=0;overflow=hidden;fillColor=none;top=0;left=0;bottom=0;right=0;pointerEvents=1;fontColor=default;align=center;spacingRight=2;spacingLeft=2;" parent="I66DchT4x0AkGHDDOi4h-93" vertex="1">
          <mxGeometry width="80" height="41" as="geometry">
            <mxRectangle width="80" height="41" as="alternateBounds" />
          </mxGeometry>
        </mxCell>
        <mxCell id="I66DchT4x0AkGHDDOi4h-95" value="2311" style="shape=partialRectangle;html=1;whiteSpace=wrap;connectable=0;overflow=hidden;fillColor=none;top=0;left=0;bottom=0;right=0;pointerEvents=1;fontColor=default;align=right;spacingRight=2;spacingLeft=2;" parent="I66DchT4x0AkGHDDOi4h-93" vertex="1">
          <mxGeometry x="80" width="80" height="41" as="geometry">
            <mxRectangle width="80" height="41" as="alternateBounds" />
          </mxGeometry>
        </mxCell>
        <mxCell id="I66DchT4x0AkGHDDOi4h-96" value="" style="shape=tableRow;horizontal=0;startSize=0;swimlaneHead=0;swimlaneBody=0;top=0;left=0;bottom=0;right=0;collapsible=0;dropTarget=0;fillColor=none;points=[[0,0.5],[1,0.5]];portConstraint=eastwest;fontColor=default;spacingRight=2;spacingLeft=2;" parent="I66DchT4x0AkGHDDOi4h-74" vertex="1">
          <mxGeometry y="238" width="160" height="42" as="geometry" />
        </mxCell>
        <mxCell id="I66DchT4x0AkGHDDOi4h-97" value="medivac" style="shape=partialRectangle;html=1;whiteSpace=wrap;connectable=0;overflow=hidden;fillColor=none;top=0;left=0;bottom=0;right=0;pointerEvents=1;fontColor=default;align=center;spacingRight=2;spacingLeft=2;" parent="I66DchT4x0AkGHDDOi4h-96" vertex="1">
          <mxGeometry width="80" height="42" as="geometry">
            <mxRectangle width="80" height="42" as="alternateBounds" />
          </mxGeometry>
        </mxCell>
        <mxCell id="I66DchT4x0AkGHDDOi4h-98" value="8180" style="shape=partialRectangle;html=1;whiteSpace=wrap;connectable=0;overflow=hidden;fillColor=none;top=0;left=0;bottom=0;right=0;pointerEvents=1;fontColor=default;align=right;spacingRight=2;spacingLeft=2;" parent="I66DchT4x0AkGHDDOi4h-96" vertex="1">
          <mxGeometry x="80" width="80" height="42" as="geometry">
            <mxRectangle width="80" height="42" as="alternateBounds" />
          </mxGeometry>
        </mxCell>
        <mxCell id="I66DchT4x0AkGHDDOi4h-104" value="" style="shape=tableRow;horizontal=0;startSize=0;swimlaneHead=0;swimlaneBody=0;top=0;left=0;bottom=0;right=0;collapsible=0;dropTarget=0;fillColor=none;points=[[0,0.5],[1,0.5]];portConstraint=eastwest;fontColor=default;spacingRight=2;spacingLeft=2;" parent="I66DchT4x0AkGHDDOi4h-74" vertex="1">
          <mxGeometry y="280" width="160" height="41" as="geometry" />
        </mxCell>
        <mxCell id="I66DchT4x0AkGHDDOi4h-105" value="normal" style="shape=partialRectangle;html=1;whiteSpace=wrap;connectable=0;overflow=hidden;fillColor=none;top=0;left=0;bottom=0;right=0;pointerEvents=1;fontColor=default;align=center;spacingRight=2;spacingLeft=2;" parent="I66DchT4x0AkGHDDOi4h-104" vertex="1">
          <mxGeometry width="80" height="41" as="geometry">
            <mxRectangle width="80" height="41" as="alternateBounds" />
          </mxGeometry>
        </mxCell>
        <mxCell id="I66DchT4x0AkGHDDOi4h-106" value="1234" style="shape=partialRectangle;html=1;whiteSpace=wrap;connectable=0;overflow=hidden;fillColor=none;top=0;left=0;bottom=0;right=0;pointerEvents=1;fontColor=default;align=right;spacingRight=2;spacingLeft=2;" parent="I66DchT4x0AkGHDDOi4h-104" vertex="1">
          <mxGeometry x="80" width="80" height="41" as="geometry">
            <mxRectangle width="80" height="41" as="alternateBounds" />
          </mxGeometry>
        </mxCell>
        <mxCell id="59zplmNoZ6mH7DEZuacR-12" value="" style="shape=tableRow;horizontal=0;startSize=0;swimlaneHead=0;swimlaneBody=0;top=0;left=0;bottom=0;right=0;collapsible=0;dropTarget=0;fillColor=none;points=[[0,0.5],[1,0.5]];portConstraint=eastwest;fontColor=default;spacingRight=2;spacingLeft=2;" vertex="1" parent="I66DchT4x0AkGHDDOi4h-74">
          <mxGeometry y="321" width="160" height="42" as="geometry" />
        </mxCell>
        <mxCell id="59zplmNoZ6mH7DEZuacR-13" value="..." style="shape=partialRectangle;html=1;whiteSpace=wrap;connectable=0;overflow=hidden;fillColor=none;top=0;left=0;bottom=0;right=0;pointerEvents=1;fontColor=default;align=center;spacingRight=2;spacingLeft=2;" vertex="1" parent="59zplmNoZ6mH7DEZuacR-12">
          <mxGeometry width="80" height="42" as="geometry">
            <mxRectangle width="80" height="42" as="alternateBounds" />
          </mxGeometry>
        </mxCell>
        <mxCell id="59zplmNoZ6mH7DEZuacR-14" value="..." style="shape=partialRectangle;html=1;whiteSpace=wrap;connectable=0;overflow=hidden;fillColor=none;top=0;left=0;bottom=0;right=0;pointerEvents=1;fontColor=default;align=right;spacingRight=2;spacingLeft=2;" vertex="1" parent="59zplmNoZ6mH7DEZuacR-12">
          <mxGeometry x="80" width="80" height="42" as="geometry">
            <mxRectangle width="80" height="42" as="alternateBounds" />
          </mxGeometry>
        </mxCell>
        <mxCell id="8DkL4rAYdG8PtnpfrYct-1" value="root" style="ellipse;whiteSpace=wrap;html=1;align=center;fontColor=default;" parent="1" vertex="1">
          <mxGeometry x="260" y="213" width="100" height="40" as="geometry" />
        </mxCell>
        <mxCell id="8DkL4rAYdG8PtnpfrYct-3" value="grand: 9890" style="ellipse;whiteSpace=wrap;html=1;align=center;fontColor=default;" parent="1" vertex="1">
          <mxGeometry x="160" y="293" width="100" height="40" as="geometry" />
        </mxCell>
        <mxCell id="8DkL4rAYdG8PtnpfrYct-4" value="" style="curved=1;endArrow=classic;html=1;rounded=0;fontColor=default;exitX=0.5;exitY=1;exitDx=0;exitDy=0;entryX=0.5;entryY=0;entryDx=0;entryDy=0;" parent="1" source="8DkL4rAYdG8PtnpfrYct-1" target="8DkL4rAYdG8PtnpfrYct-3" edge="1">
          <mxGeometry width="50" height="50" relative="1" as="geometry">
            <mxPoint x="510" y="413" as="sourcePoint" />
            <mxPoint x="560" y="363" as="targetPoint" />
            <Array as="points">
              <mxPoint x="250" y="263" />
            </Array>
          </mxGeometry>
        </mxCell>
        <mxCell id="8DkL4rAYdG8PtnpfrYct-5" value="meditate: 2222" style="ellipse;whiteSpace=wrap;html=1;align=center;fontColor=default;" parent="1" vertex="1">
          <mxGeometry x="360" y="293" width="100" height="40" as="geometry" />
        </mxCell>
        <mxCell id="8DkL4rAYdG8PtnpfrYct-6" value="" style="curved=1;endArrow=classic;html=1;rounded=0;fontColor=default;exitX=0.5;exitY=1;exitDx=0;exitDy=0;entryX=0.5;entryY=0;entryDx=0;entryDy=0;" parent="1" source="8DkL4rAYdG8PtnpfrYct-1" target="8DkL4rAYdG8PtnpfrYct-5" edge="1">
          <mxGeometry width="50" height="50" relative="1" as="geometry">
            <mxPoint x="320" y="263" as="sourcePoint" />
            <mxPoint x="220" y="303" as="targetPoint" />
            <Array as="points">
              <mxPoint x="390" y="273" />
            </Array>
          </mxGeometry>
        </mxCell>
        <mxCell id="8DkL4rAYdG8PtnpfrYct-7" value="" style="curved=1;endArrow=classic;html=1;rounded=0;fontColor=default;entryX=0.5;entryY=0;entryDx=0;entryDy=0;exitX=0.5;exitY=1;exitDx=0;exitDy=0;" parent="1" source="8DkL4rAYdG8PtnpfrYct-5" target="8DkL4rAYdG8PtnpfrYct-8" edge="1">
          <mxGeometry width="50" height="50" relative="1" as="geometry">
            <mxPoint x="400" y="353" as="sourcePoint" />
            <mxPoint x="310" y="373" as="targetPoint" />
            <Array as="points">
              <mxPoint x="350" y="343" />
            </Array>
          </mxGeometry>
        </mxCell>
        <mxCell id="8DkL4rAYdG8PtnpfrYct-8" value="meddle: 5545" style="ellipse;whiteSpace=wrap;html=1;align=center;fontColor=default;" parent="1" vertex="1">
          <mxGeometry x="260" y="373" width="100" height="40" as="geometry" />
        </mxCell>
        <mxCell id="8DkL4rAYdG8PtnpfrYct-9" value="" style="curved=1;endArrow=classic;html=1;rounded=0;fontColor=default;entryX=0.5;entryY=0;entryDx=0;entryDy=0;exitX=0.5;exitY=1;exitDx=0;exitDy=0;" parent="1" source="8DkL4rAYdG8PtnpfrYct-5" edge="1">
          <mxGeometry width="50" height="50" relative="1" as="geometry">
            <mxPoint x="410" y="343" as="sourcePoint" />
            <mxPoint x="510" y="373" as="targetPoint" />
            <Array as="points">
              <mxPoint x="490" y="353" />
            </Array>
          </mxGeometry>
        </mxCell>
        <mxCell id="8DkL4rAYdG8PtnpfrYct-10" value="small: 0001" style="ellipse;whiteSpace=wrap;html=1;align=center;fontColor=default;" parent="1" vertex="1">
          <mxGeometry x="460" y="373" width="100" height="40" as="geometry" />
        </mxCell>
        <mxCell id="8DkL4rAYdG8PtnpfrYct-15" value="" style="curved=1;endArrow=classic;html=1;rounded=0;fontColor=default;entryX=0.5;entryY=0;entryDx=0;entryDy=0;exitX=0.5;exitY=1;exitDx=0;exitDy=0;" parent="1" target="8DkL4rAYdG8PtnpfrYct-16" edge="1">
          <mxGeometry width="50" height="50" relative="1" as="geometry">
            <mxPoint x="210" y="333" as="sourcePoint" />
            <mxPoint x="110" y="373" as="targetPoint" />
            <Array as="points">
              <mxPoint x="150" y="343" />
            </Array>
          </mxGeometry>
        </mxCell>
        <mxCell id="8DkL4rAYdG8PtnpfrYct-16" value="aardvark: 2459" style="ellipse;whiteSpace=wrap;html=1;align=center;fontColor=default;" parent="1" vertex="1">
          <mxGeometry x="60" y="373" width="100" height="40" as="geometry" />
        </mxCell>
        <mxCell id="8DkL4rAYdG8PtnpfrYct-17" value="&lt;font style=&quot;font-size: 14px&quot;&gt;Active Segment&lt;/font&gt;" style="text;html=1;strokeColor=default;fillColor=none;align=center;verticalAlign=middle;whiteSpace=wrap;rounded=0;fontColor=default;fontStyle=1;labelBorderColor=none;spacing=2;strokeWidth=2;" parent="1" vertex="1">
          <mxGeometry x="221" y="180" width="178" height="30" as="geometry" />
        </mxCell>
        <mxCell id="NjsudWIWoi5uVisPwLOh-1" value="" style="strokeWidth=2;html=1;shape=mxgraph.flowchart.annotation_2;align=left;labelPosition=right;pointerEvents=1;rotation=-180;fontColor=#00994D;strokeColor=#00994D;" parent="1" vertex="1">
          <mxGeometry x="781" y="260" width="50" height="190" as="geometry" />
        </mxCell>
        <mxCell id="NjsudWIWoi5uVisPwLOh-2" value="Potential Compression" style="text;html=1;align=center;verticalAlign=middle;resizable=0;points=[];autosize=1;rotation=-90;fontColor=#00994D;" parent="1" vertex="1">
          <mxGeometry x="771" y="330" width="140" height="20" as="geometry" />
        </mxCell>
        <mxCell id="59zplmNoZ6mH7DEZuacR-6" value="" style="strokeWidth=2;html=1;shape=mxgraph.flowchart.annotation_2;align=left;labelPosition=right;pointerEvents=1;rotation=-180;strokeColor=#6c8ebf;fillColor=#dae8fc;" vertex="1" parent="1">
          <mxGeometry x="781" y="212" width="50" height="42" as="geometry" />
        </mxCell>
        <mxCell id="59zplmNoZ6mH7DEZuacR-7" value="Segments 1..i-1" style="text;html=1;align=center;verticalAlign=middle;resizable=0;points=[];autosize=1;rotation=-90;fontColor=#7EA6E0;" vertex="1" parent="1">
          <mxGeometry x="790" y="212" width="100" height="20" as="geometry" />
        </mxCell>
        <mxCell id="59zplmNoZ6mH7DEZuacR-8" value="" style="strokeWidth=2;html=1;shape=mxgraph.flowchart.annotation_2;align=left;labelPosition=right;pointerEvents=1;rotation=-180;strokeColor=#6c8ebf;fillColor=#dae8fc;" vertex="1" parent="1">
          <mxGeometry x="781" y="460" width="50" height="80" as="geometry" />
        </mxCell>
        <mxCell id="59zplmNoZ6mH7DEZuacR-9" value="Segments i+1.." style="text;html=1;align=center;verticalAlign=middle;resizable=0;points=[];autosize=1;rotation=-90;fontColor=#7EA6E0;" vertex="1" parent="1">
          <mxGeometry x="791" y="470" width="100" height="20" as="geometry" />
        </mxCell>
        <mxCell id="59zplmNoZ6mH7DEZuacR-46" value="Backup Active Segment" style="shape=table;startSize=30;container=1;collapsible=0;childLayout=tableLayout;fontColor=default;spacingRight=2;spacingLeft=2;fontStyle=1;fontSize=14;" vertex="1" parent="1">
          <mxGeometry x="221" y="430" width="176" height="217" as="geometry" />
        </mxCell>
        <mxCell id="59zplmNoZ6mH7DEZuacR-47" value="" style="shape=tableRow;horizontal=0;startSize=0;swimlaneHead=0;swimlaneBody=0;top=0;left=0;bottom=0;right=0;collapsible=0;dropTarget=0;fillColor=none;points=[[0,0.5],[1,0.5]];portConstraint=eastwest;fontColor=default;spacingRight=2;spacingLeft=2;" vertex="1" parent="59zplmNoZ6mH7DEZuacR-46">
          <mxGeometry y="30" width="176" height="39" as="geometry" />
        </mxCell>
        <mxCell id="59zplmNoZ6mH7DEZuacR-48" value="meditate" style="shape=partialRectangle;html=1;whiteSpace=wrap;connectable=0;overflow=hidden;fillColor=none;top=0;left=0;bottom=0;right=0;pointerEvents=1;fontColor=default;align=center;spacingRight=2;spacingLeft=2;" vertex="1" parent="59zplmNoZ6mH7DEZuacR-47">
          <mxGeometry width="88" height="39" as="geometry">
            <mxRectangle width="88" height="39" as="alternateBounds" />
          </mxGeometry>
        </mxCell>
        <mxCell id="59zplmNoZ6mH7DEZuacR-49" value="2222" style="shape=partialRectangle;html=1;whiteSpace=wrap;connectable=0;overflow=hidden;fillColor=none;top=0;left=0;bottom=0;right=0;pointerEvents=1;fontColor=default;align=right;spacingRight=2;spacingLeft=2;" vertex="1" parent="59zplmNoZ6mH7DEZuacR-47">
          <mxGeometry x="88" width="88" height="39" as="geometry">
            <mxRectangle width="88" height="39" as="alternateBounds" />
          </mxGeometry>
        </mxCell>
        <mxCell id="59zplmNoZ6mH7DEZuacR-50" value="" style="shape=tableRow;horizontal=0;startSize=0;swimlaneHead=0;swimlaneBody=0;top=0;left=0;bottom=0;right=0;collapsible=0;dropTarget=0;fillColor=none;points=[[0,0.5],[1,0.5]];portConstraint=eastwest;fontColor=default;spacingRight=2;spacingLeft=2;" vertex="1" parent="59zplmNoZ6mH7DEZuacR-46">
          <mxGeometry y="69" width="176" height="36" as="geometry" />
        </mxCell>
        <mxCell id="59zplmNoZ6mH7DEZuacR-51" value="meddle" style="shape=partialRectangle;html=1;whiteSpace=wrap;connectable=0;overflow=hidden;fillColor=none;top=0;left=0;bottom=0;right=0;pointerEvents=1;fontColor=default;align=center;spacingRight=2;spacingLeft=2;" vertex="1" parent="59zplmNoZ6mH7DEZuacR-50">
          <mxGeometry width="88" height="36" as="geometry">
            <mxRectangle width="88" height="36" as="alternateBounds" />
          </mxGeometry>
        </mxCell>
        <mxCell id="59zplmNoZ6mH7DEZuacR-52" value="5545" style="shape=partialRectangle;html=1;whiteSpace=wrap;connectable=0;overflow=hidden;fillColor=none;top=0;left=0;bottom=0;right=0;pointerEvents=1;fontColor=default;align=right;spacingRight=2;spacingLeft=2;" vertex="1" parent="59zplmNoZ6mH7DEZuacR-50">
          <mxGeometry x="88" width="88" height="36" as="geometry">
            <mxRectangle width="88" height="36" as="alternateBounds" />
          </mxGeometry>
        </mxCell>
        <mxCell id="59zplmNoZ6mH7DEZuacR-53" value="" style="shape=tableRow;horizontal=0;startSize=0;swimlaneHead=0;swimlaneBody=0;top=0;left=0;bottom=0;right=0;collapsible=0;dropTarget=0;fillColor=none;points=[[0,0.5],[1,0.5]];portConstraint=eastwest;fontColor=default;spacingRight=2;spacingLeft=2;" vertex="1" parent="59zplmNoZ6mH7DEZuacR-46">
          <mxGeometry y="105" width="176" height="37" as="geometry" />
        </mxCell>
        <mxCell id="59zplmNoZ6mH7DEZuacR-54" value="grand" style="shape=partialRectangle;html=1;whiteSpace=wrap;connectable=0;overflow=hidden;fillColor=none;top=0;left=0;bottom=0;right=0;pointerEvents=1;fontColor=default;align=center;spacingRight=2;spacingLeft=2;" vertex="1" parent="59zplmNoZ6mH7DEZuacR-53">
          <mxGeometry width="88" height="37" as="geometry">
            <mxRectangle width="88" height="37" as="alternateBounds" />
          </mxGeometry>
        </mxCell>
        <mxCell id="59zplmNoZ6mH7DEZuacR-55" value="9890" style="shape=partialRectangle;html=1;whiteSpace=wrap;connectable=0;overflow=hidden;fillColor=none;top=0;left=0;bottom=0;right=0;pointerEvents=1;fontColor=default;align=right;spacingRight=2;spacingLeft=2;" vertex="1" parent="59zplmNoZ6mH7DEZuacR-53">
          <mxGeometry x="88" width="88" height="37" as="geometry">
            <mxRectangle width="88" height="37" as="alternateBounds" />
          </mxGeometry>
        </mxCell>
        <mxCell id="59zplmNoZ6mH7DEZuacR-56" value="" style="shape=tableRow;horizontal=0;startSize=0;swimlaneHead=0;swimlaneBody=0;top=0;left=0;bottom=0;right=0;collapsible=0;dropTarget=0;fillColor=none;points=[[0,0.5],[1,0.5]];portConstraint=eastwest;fontColor=default;spacingRight=2;spacingLeft=2;" vertex="1" parent="59zplmNoZ6mH7DEZuacR-46">
          <mxGeometry y="142" width="176" height="38" as="geometry" />
        </mxCell>
        <mxCell id="59zplmNoZ6mH7DEZuacR-57" value="aardvark" style="shape=partialRectangle;html=1;whiteSpace=wrap;connectable=0;overflow=hidden;fillColor=none;top=0;left=0;bottom=0;right=0;pointerEvents=1;fontColor=default;align=center;spacingRight=2;spacingLeft=2;" vertex="1" parent="59zplmNoZ6mH7DEZuacR-56">
          <mxGeometry width="88" height="38" as="geometry">
            <mxRectangle width="88" height="38" as="alternateBounds" />
          </mxGeometry>
        </mxCell>
        <mxCell id="59zplmNoZ6mH7DEZuacR-58" value="2459" style="shape=partialRectangle;html=1;whiteSpace=wrap;connectable=0;overflow=hidden;fillColor=none;top=0;left=0;bottom=0;right=0;pointerEvents=1;fontColor=default;align=right;spacingRight=2;spacingLeft=2;" vertex="1" parent="59zplmNoZ6mH7DEZuacR-56">
          <mxGeometry x="88" width="88" height="38" as="geometry">
            <mxRectangle width="88" height="38" as="alternateBounds" />
          </mxGeometry>
        </mxCell>
        <mxCell id="59zplmNoZ6mH7DEZuacR-59" value="" style="shape=tableRow;horizontal=0;startSize=0;swimlaneHead=0;swimlaneBody=0;top=0;left=0;bottom=0;right=0;collapsible=0;dropTarget=0;fillColor=none;points=[[0,0.5],[1,0.5]];portConstraint=eastwest;fontColor=default;spacingRight=2;spacingLeft=2;" vertex="1" parent="59zplmNoZ6mH7DEZuacR-46">
          <mxGeometry y="180" width="176" height="37" as="geometry" />
        </mxCell>
        <mxCell id="59zplmNoZ6mH7DEZuacR-60" value="small" style="shape=partialRectangle;html=1;whiteSpace=wrap;connectable=0;overflow=hidden;fillColor=none;top=0;left=0;bottom=0;right=0;pointerEvents=1;fontColor=default;align=center;spacingRight=2;spacingLeft=2;" vertex="1" parent="59zplmNoZ6mH7DEZuacR-59">
          <mxGeometry width="88" height="37" as="geometry">
            <mxRectangle width="88" height="37" as="alternateBounds" />
          </mxGeometry>
        </mxCell>
        <mxCell id="59zplmNoZ6mH7DEZuacR-61" value="0001" style="shape=partialRectangle;html=1;whiteSpace=wrap;connectable=0;overflow=hidden;fillColor=none;top=0;left=0;bottom=0;right=0;pointerEvents=1;fontColor=default;align=right;spacingRight=2;spacingLeft=2;" vertex="1" parent="59zplmNoZ6mH7DEZuacR-59">
          <mxGeometry x="88" width="88" height="37" as="geometry">
            <mxRectangle width="88" height="37" as="alternateBounds" />
          </mxGeometry>
        </mxCell>
      </root>
    </mxGraphModel>
  </diagram>
</mxfile>
